<svg width="24" height="24" viewBox="0 0 24 24" fill="none" xmlns="http://www.w3.org/2000/svg">
<rect width="24" height="24" rx="4" fill="#303030"/>
<g clip-path="url(#clip0_6369_44464)">
<path d="M14.6801 12L18.3334 14.0866C18.436 14.1448 18.5214 14.2291 18.5807 14.331C18.6401 14.4329 18.6714 14.5487 18.6714 14.6666C18.6714 14.7846 18.6401 14.9004 18.5807 15.0023C18.5214 15.1042 18.436 15.1885 18.3334 15.2466L12.6667 18.4933C12.4641 18.6103 12.2341 18.6719 12.0001 18.6719C11.766 18.6719 11.5361 18.6103 11.3334 18.4933L5.66675 15.2466C5.56415 15.1885 5.47881 15.1042 5.41944 15.0023C5.36006 14.9004 5.32878 14.7846 5.32878 14.6666C5.32878 14.5487 5.36006 14.4329 5.41944 14.331C5.47881 14.2291 5.56415 14.1448 5.66675 14.0866L9.32008 12M12.6667 13.1599C12.4641 13.2769 12.2341 13.3385 12.0001 13.3385C11.766 13.3385 11.5361 13.2769 11.3334 13.1599L5.66675 9.91324C5.56415 9.8551 5.47881 9.77078 5.41944 9.66888C5.36006 9.56699 5.32878 9.45117 5.32878 9.33324C5.32878 9.21531 5.36006 9.09949 5.41944 8.9976C5.47881 8.89571 5.56415 8.81139 5.66675 8.75324L11.3334 5.50657C11.5361 5.38955 11.766 5.32794 12.0001 5.32794C12.2341 5.32794 12.4641 5.38955 12.6667 5.50657L18.3334 8.75324C18.436 8.81139 18.5214 8.89571 18.5807 8.9976C18.6401 9.09949 18.6714 9.21531 18.6714 9.33324C18.6714 9.45117 18.6401 9.56699 18.5807 9.66888C18.5214 9.77078 18.436 9.8551 18.3334 9.91324L12.6667 13.1599Z" stroke="white" stroke-width="1.5" stroke-linecap="round" stroke-linejoin="round"/>
</g>
<defs>
<clipPath id="clip0_6369_44464">
<rect width="16" height="16" fill="white" transform="translate(4 4)"/>
</clipPath>
</defs>
</svg>
