<svg width="409" height="140" viewBox="0 0 409 140" fill="none" xmlns="http://www.w3.org/2000/svg">
<path d="M8.32102 112V27.6364H39.9574C46.4384 27.6364 51.8759 28.8447 56.2699 31.2614C60.6913 33.678 64.0279 37.0009 66.2798 41.2301C68.5592 45.4318 69.6989 50.2102 69.6989 55.5653C69.6989 60.9754 68.5592 65.7812 66.2798 69.983C64.0005 74.1847 60.6364 77.4938 56.1875 79.9105C51.7386 82.2997 46.2599 83.4943 39.7514 83.4943H18.7841V70.9304H37.6918C41.4815 70.9304 44.5848 70.2713 47.0014 68.9531C49.4181 67.6349 51.2031 65.8224 52.3565 63.5156C53.5374 61.2088 54.1278 58.5587 54.1278 55.5653C54.1278 52.572 53.5374 49.9356 52.3565 47.6562C51.2031 45.3769 49.4044 43.6056 46.9602 42.3423C44.5436 41.0516 41.4266 40.4062 37.6094 40.4062H23.6037V112H8.32102ZM95.2262 27.6364V112H80.3143V27.6364H95.2262ZM136.572 113.236C130.228 113.236 124.749 111.918 120.136 109.281C115.549 106.617 112.021 102.855 109.549 97.9943C107.077 93.1061 105.842 87.3527 105.842 80.7344C105.842 74.2259 107.077 68.5137 109.549 63.598C112.048 58.6548 115.536 54.8101 120.012 52.0639C124.488 49.2902 129.747 47.9034 135.789 47.9034C139.689 47.9034 143.369 48.535 146.829 49.7983C150.317 51.0341 153.392 52.9564 156.056 55.5653C158.747 58.1742 160.862 61.4972 162.4 65.5341C163.938 69.5436 164.707 74.322 164.707 79.8693V84.4418H112.844V74.3906H150.413C150.385 71.5346 149.767 68.9943 148.559 66.7699C147.351 64.518 145.662 62.7467 143.492 61.456C141.35 60.1652 138.851 59.5199 135.995 59.5199C132.947 59.5199 130.269 60.2614 127.962 61.7443C125.656 63.1998 123.857 65.1222 122.566 67.5114C121.303 69.8731 120.657 72.4683 120.63 75.2969V84.071C120.63 87.7509 121.303 90.9091 122.648 93.5455C123.994 96.1544 125.875 98.1591 128.292 99.5597C130.709 100.933 133.537 101.619 136.778 101.619C138.947 101.619 140.911 101.317 142.668 100.713C144.426 100.081 145.95 99.1615 147.241 97.9531C148.531 96.7448 149.506 95.2481 150.165 93.4631L164.089 95.0284C163.21 98.7083 161.535 101.921 159.063 104.668C156.619 107.386 153.488 109.501 149.671 111.011C145.854 112.494 141.487 113.236 136.572 113.236ZM186.156 48.7273L198.926 72.0838L211.902 48.7273H227.679L208.606 80.3636L228.008 112H212.314L198.926 89.2202L185.662 112H169.843L189.122 80.3636L170.338 48.7273H186.156ZM317.826 27.6364H333.108V82.7528C333.108 88.7945 331.68 94.1084 328.824 98.6946C325.996 103.281 322.014 106.865 316.878 109.446C311.743 112 305.742 113.277 298.877 113.277C291.984 113.277 285.97 112 280.834 109.446C275.699 106.865 271.717 103.281 268.888 98.6946C266.06 94.1084 264.645 88.7945 264.645 82.7528V27.6364H279.928V81.4759C279.928 84.991 280.697 88.1217 282.235 90.8679C283.8 93.6141 285.997 95.7699 288.826 97.3352C291.654 98.8731 295.005 99.642 298.877 99.642C302.749 99.642 306.099 98.8731 308.928 97.3352C311.784 95.7699 313.981 93.6141 315.519 90.8679C317.057 88.1217 317.826 84.991 317.826 81.4759V27.6364ZM363.002 27.6364V112H347.719V27.6364H363.002Z" fill="black"/>
</svg>
